<svg width="47" height="46" viewBox="0 0 47 46" fill="none" xmlns="http://www.w3.org/2000/svg">
<path d="M34.9583 2H12.0417C9.61052 2 7.27894 2.96577 5.55985 4.68485C3.84077 6.40394 2.875 8.73552 2.875 11.1667V34.0833C2.875 36.5145 3.84077 38.8461 5.55985 40.5651C7.27894 42.2842 9.61052 43.25 12.0417 43.25H34.9583C37.3895 43.25 39.7211 42.2842 41.4401 40.5651C43.1592 38.8461 44.125 36.5145 44.125 34.0833V11.1667C44.125 8.73552 43.1592 6.40394 41.4401 4.68485C39.7211 2.96577 37.3895 2 34.9583 2Z" fill="#2F88FF" stroke="black" stroke-width="4" stroke-linejoin="round"/>
<path d="M23.4999 31.7917C25.9311 31.7917 28.2626 30.8259 29.9817 29.1068C31.7008 27.3877 32.6666 25.0562 32.6666 22.625C32.6666 20.1939 31.7008 17.8623 29.9817 16.1432C28.2626 14.4241 25.9311 13.4583 23.4999 13.4583C21.0688 13.4583 18.7372 14.4241 17.0181 16.1432C15.299 17.8623 14.3333 20.1939 14.3333 22.625C14.3333 25.0562 15.299 27.3877 17.0181 29.1068C18.7372 30.8259 21.0688 31.7917 23.4999 31.7917Z" fill="#43CCF8" stroke="white" stroke-width="4" stroke-linejoin="round"/>
<path d="M36.1042 12.3125C36.712 12.3125 37.2948 12.0711 37.7246 11.6413C38.1544 11.2115 38.3958 10.6286 38.3958 10.0208C38.3958 9.41304 38.1544 8.83015 37.7246 8.40038C37.2948 7.97061 36.712 7.72916 36.1042 7.72916C35.4964 7.72916 34.9135 7.97061 34.4837 8.40038C34.0539 8.83015 33.8125 9.41304 33.8125 10.0208C33.8125 10.6286 34.0539 11.2115 34.4837 11.6413C34.9135 12.0711 35.4964 12.3125 36.1042 12.3125Z" fill="white"/>
</svg>
