<svg width="38" height="37" viewBox="0 0 38 37" fill="none" xmlns="http://www.w3.org/2000/svg">
<path d="M14.0909 35.3636C14.9946 35.3636 15.7273 34.631 15.7273 33.7272C15.7273 32.8235 14.9946 32.0909 14.0909 32.0909C13.1872 32.0909 12.4545 32.8235 12.4545 33.7272C12.4545 34.631 13.1872 35.3636 14.0909 35.3636Z" stroke="black" stroke-width="2" stroke-linecap="round" stroke-linejoin="round"/>
<path d="M32.0909 35.3636C32.9946 35.3636 33.7273 34.631 33.7273 33.7272C33.7273 32.8235 32.9946 32.0909 32.0909 32.0909C31.1872 32.0909 30.4545 32.8235 30.4545 33.7272C30.4545 34.631 31.1872 35.3636 32.0909 35.3636Z" stroke="black" stroke-width="2" stroke-linecap="round" stroke-linejoin="round"/>
<path d="M1 1H7.54545L11.9309 22.9109C12.0805 23.6643 12.4904 24.341 13.0887 24.8227C13.687 25.3043 14.4357 25.5602 15.2036 25.5455H31.1091C31.877 25.5602 32.6257 25.3043 33.224 24.8227C33.8223 24.341 34.2322 23.6643 34.3818 22.9109L37 9.18182H9.18182" stroke="black" stroke-width="2" stroke-linecap="round" stroke-linejoin="round"/>
</svg>
