<svg width="44" height="44" viewBox="0 0 44 44" fill="none" xmlns="http://www.w3.org/2000/svg">
<path d="M41.5716 44C42.9125 44 44 42.9127 44 41.5716V2.42841C44 1.08711 42.9125 0 41.5716 0H2.42842C1.08694 0 0 1.08711 0 2.42841V41.5716C0 42.9127 1.08694 44 2.42842 44H41.5716Z" fill="#395185"/>
<path d="M30.3325 44V27.1226H35.9344L36.7731 20.5452H30.3325V16.3457C30.3325 14.4413 30.8555 13.1436 33.5559 13.1436L37 13.142V7.25928C36.4041 7.1791 34.3597 7 31.9814 7C27.0157 7 23.6162 10.0652 23.6162 15.6945V20.5452H18V27.1226H23.6162V44H30.3325Z" fill="white"/>
</svg>
